<svg cache-id="cb5f38cfda6a41e79d41b5dafe368709" id="exaoHNF4P7T1" xmlns="http://www.w3.org/2000/svg" xmlns:xlink="http://www.w3.org/1999/xlink" viewBox="0 0 1000 1000" shape-rendering="geometricPrecision" text-rendering="geometricPrecision"><style><![CDATA[#exaoHNF4P7T23_to {animation: exaoHNF4P7T23_to__to 3000ms linear infinite normal forwards}@keyframes exaoHNF4P7T23_to__to { 0% {transform: translate(500px,900.000028px)} 16.666667% {transform: translate(500px,900.000028px);animation-timing-function: cubic-bezier(0.445,0.05,0.55,0.95)} 23.333333% {transform: translate(500px,100.00003px)} 50% {transform: translate(500px,100.00003px)} 66.666667% {transform: translate(500px,100.00003px)} 73.333333% {transform: translate(500px,900.000028px)} 100% {transform: translate(500px,900.000028px)}} #exaoHNF4P7T23_ts {animation: exaoHNF4P7T23_ts__ts 3000ms linear infinite normal forwards}@keyframes exaoHNF4P7T23_ts__ts { 0% {transform: scale(1,0);animation-timing-function: cubic-bezier(0.445,0.05,0.55,0.95)} 10% {transform: scale(1,1);animation-timing-function: cubic-bezier(0.445,0.05,0.55,0.95)} 30% {transform: scale(1,1);animation-timing-function: cubic-bezier(0.445,0.05,0.55,0.95)} 40% {transform: scale(0,0);animation-timing-function: cubic-bezier(0.445,0.05,0.55,0.95)} 50% {transform: scale(1,0);animation-timing-function: cubic-bezier(0.445,0.05,0.55,0.95)} 60% {transform: scale(1,1);animation-timing-function: cubic-bezier(0.445,0.05,0.55,0.95)} 80% {transform: scale(1,1);animation-timing-function: cubic-bezier(0.445,0.05,0.55,0.95)} 90% {transform: scale(0,0)} 100% {transform: scale(0,0)}} #exaoHNF4P7T23 {animation-name: exaoHNF4P7T23__tt, exaoHNF4P7T23_c_o;animation-duration: 3000ms;animation-fill-mode: forwards;animation-timing-function: linear;animation-direction: normal;animation-iteration-count: infinite;}@keyframes exaoHNF4P7T23__tt { 0% {transform: translate(-500px,-899.999997px)} 16.666667% {transform: translate(-500px,-899.999997px);animation-timing-function: cubic-bezier(0.445,0.05,0.55,0.95)} 23.333333% {transform: translate(-500px,-100px)} 50% {transform: translate(-500px,-100px)} 66.666667% {transform: translate(-500px,-100px)} 73.333333% {transform: translate(-500px,-899.999997px)} 100% {transform: translate(-500px,-899.999997px)}}@keyframes exaoHNF4P7T23_c_o { 0% {opacity: 0;animation-timing-function: cubic-bezier(0.445,0.05,0.55,0.95)} 6.666667% {opacity: 1;animation-timing-function: cubic-bezier(0.445,0.05,0.55,0.95)} 33.333333% {opacity: 1;animation-timing-function: cubic-bezier(0.445,0.05,0.55,0.95)} 40% {opacity: 0} 50% {opacity: 0;animation-timing-function: cubic-bezier(0.445,0.05,0.55,0.95)} 56.666667% {opacity: 1;animation-timing-function: cubic-bezier(0.445,0.05,0.55,0.95)} 83.333333% {opacity: 1;animation-timing-function: cubic-bezier(0.445,0.05,0.55,0.95)} 90% {opacity: 0} 100% {opacity: 0}}]]></style><g id="exaoHNF4P7T23_to" transform="translate(500,900.000028)"><g id="exaoHNF4P7T23_ts" transform="scale(1,0)"><g id="exaoHNF4P7T23" transform="translate(-500,-899.999997)" opacity="0"><rect width="977.156523" height="968.083497" rx="0" ry="0" transform="matrix(.818702 0 0 0.826375 100.000001 100)" clip-rule="evenodd" fill="#fed800" fill-rule="evenodd" stroke-linejoin="round" stroke-miterlimit="2"/><g transform="matrix(2.941321 0 0 2.850756-675.815294-341.115499)" clip-rule="evenodd"><g transform="matrix(.993337-.115248-.115248 1.02008-36.775398 72.685501)" clip-rule="evenodd"><g transform="matrix(36.241699 0 4.14895 35.760101 434.026001 250.850998)" clip-rule="evenodd"><path d="M0.328,-0.233l.137-.484c.015-.003.031-.005.047-.006.015-.001.032-.002.049-.002.011,0,.025.001.042.002.017.002.031.004.044.006l-.23.715c-.017.003-.033.005-.048.006s-.03.002-.044.002c-.013,0-.027-.001-.041-.002s-.031-.003-.05-.006l-.229-.715c.011-.002.026-.004.045-.006.019-.001.037-.002.054-.002.014,0,.029.001.046.002.017.002.031.004.044.006l.134.484Z" clip-rule="evenodd" fill="#1d1d1d" stroke-linejoin="round" stroke-miterlimit="2"/></g><g transform="matrix(36.241699 0 4.14895 35.760101 454.902008 250.850998)" clip-rule="evenodd"><path d="M0.178,-0.002c-.015.003-.029.005-.042.006s-.025.002-.037.002-.026-.001-.041-.002c-.016-.002-.034-.005-.053-.008l.224-.714c.017-.002.034-.004.049-.005s.03-.002.045-.002c.013,0,.026.001.042.002.015.001.032.003.051.005l.221.715c-.038.006-.071.009-.1.009-.013,0-.027-.001-.04-.002s-.028-.003-.043-.006l-.038-.139c-.019.005-.036.009-.053.012-.018.003-.034.004-.051.004-.015,0-.031-.001-.047-.004-.016-.002-.033-.005-.05-.01l-.037.137Zm.14-.528l-.067.257c.011.003.022.006.032.008s.02.003.031.003.023-.001.034-.003c.011-.001.022-.004.034-.007l-.064-.258Z" clip-rule="evenodd" fill="#1d1d1d" stroke-linejoin="round" stroke-miterlimit="2"/></g><g transform="matrix(36.241699 0 4.14895 35.760101 478.169006 250.850998)" clip-rule="evenodd"><path d="M0.06,-0.717c.015-.003.028-.005.04-.006s.024-.002.035-.002c.012,0,.025.001.038.002.013.002.024.004.033.006l.232.392v-.392c.017-.003.033-.005.047-.006s.027-.002.038-.002.023.001.036.002.026.003.04.006l-.001.714c-.007.002-.016.004-.029.006s-.026.003-.041.003c-.017,0-.032-.001-.045-.003-.013-.003-.023-.005-.029-.006l-.233-.39v.39c-.029.006-.056.009-.08.009s-.051-.003-.081-.009v-.714Z" clip-rule="evenodd" fill="#1d1d1d" stroke-linejoin="round" stroke-miterlimit="2"/></g></g><g transform="matrix(.993337-.11525-.11525 1.02008-36.775398 72.685501)" clip-rule="evenodd"><g transform="matrix(60.402802 0 6.91498 59.600201 383.20401 301.511993)" clip-rule="evenodd"><path d="M0.06,-0.717c.033-.003.063-.007.091-.01.027-.002.056-.004.087-.004.037,0,.073.003.11.01.037.008.069.02.098.037s.052.041.07.071.027.068.027.114c0,.025-.003.047-.008.066-.006.02-.013.038-.022.053-.01.015-.019.029-.03.04s-.022.021-.033.029l.156.308c-.016.003-.034.005-.052.006-.019.001-.037.002-.052.002-.013,0-.029-.001-.046-.002-.018-.001-.034-.003-.047-.006l-.142-.327.009-.005c.008-.004.017-.011.027-.02.009-.009.018-.021.027-.034.008-.013.015-.027.021-.043.005-.016.008-.033.008-.05c0-.033-.009-.058-.028-.073s-.042-.023-.069-.023c-.007,0-.012,0-.017.001s-.008.001-.009.002v.572c-.035.006-.064.009-.087.009-.025,0-.054-.003-.089-.009v-.714Z" clip-rule="evenodd" fill="#1d1d1d" stroke-linejoin="round" stroke-miterlimit="2"/></g><g transform="matrix(60.402802 0 6.91498 59.600201 418.623993 301.511993)" clip-rule="evenodd"><path d="M0.041,-0.357c0-.053.006-.103.019-.149.012-.045.031-.085.057-.118.025-.033.058-.06.098-.079.039-.018.086-.028.141-.028s.102.01.141.028c.039.019.072.046.098.079.025.033.044.073.057.118.012.046.018.096.018.149s-.006.102-.018.147c-.013.045-.032.084-.057.117-.026.034-.059.059-.098.077-.039.019-.086.028-.141.028s-.102-.009-.141-.028c-.04-.018-.073-.043-.098-.077-.026-.033-.045-.072-.057-.117-.013-.045-.019-.094-.019-.147Zm.443,0c0-.145-.042-.218-.127-.218-.087,0-.13.073-.13.218c0,.073.011.127.032.162.021.036.053.054.097.054.085,0,.128-.072.128-.216Z" clip-rule="evenodd" fill="#1d1d1d" stroke-linejoin="round" stroke-miterlimit="2"/></g><g transform="matrix(60.402802 0 6.91498 59.600201 459.78299 301.511993)" clip-rule="evenodd"><path d="M0.191,-0.563h-.167c-.006-.029-.009-.055-.009-.079c0-.022.003-.048.009-.077h.511c.003.015.005.028.006.041s.002.025.002.036c0,.022-.003.048-.008.079h-.167v.56c-.035.006-.065.009-.088.009-.025,0-.054-.003-.089-.009v-.56Z" clip-rule="evenodd" fill="#1d1d1d" stroke-linejoin="round" stroke-miterlimit="2"/></g><g transform="matrix(60.402802 0 6.91498 59.600201 493.488007 301.511993)" clip-rule="evenodd"><path d="M0.503,0.006c-.025,0-.054-.003-.089-.009v-.292h-.177v.292c-.035.006-.065.009-.088.009-.025,0-.054-.003-.089-.009v-.714c.018-.003.034-.005.049-.006s.028-.002.039-.002c.012,0,.025.001.041.002.015.001.031.003.048.006v.265h.177v-.265c.018-.003.034-.005.049-.006.014-.001.027-.002.039-.002s.026.001.041.002.031.003.048.006v.714c-.035.006-.065.009-.088.009Z" clip-rule="evenodd" fill="#1d1d1d" stroke-linejoin="round" stroke-miterlimit="2"/></g><g transform="matrix(60.402802 0 6.91498 59.600201 532.809998 301.511993)" clip-rule="evenodd"><path d="M0.439,-0.375c0,.023-.003.049-.009.078h-.193v.142h.251c.006.028.009.053.009.076c0,.025-.003.051-.009.079h-.428v-.719h.422c.003.015.005.028.006.041s.002.025.002.036c0,.022-.003.048-.008.079h-.245v.11h.193c.006.029.009.055.009.078Z" clip-rule="evenodd" fill="#1d1d1d" stroke-linejoin="round" stroke-miterlimit="2"/></g></g></g></g></g></g></svg>